<?xml version="1.0" standalone="no"?>
<!DOCTYPE svg PUBLIC "-//W3C//DTD SVG 20010904//EN"
 "http://www.w3.org/TR/2001/REC-SVG-20010904/DTD/svg10.dtd">
<svg version="1.0" xmlns="http://www.w3.org/2000/svg"
 width="600.000000pt" height="600.000000pt" viewBox="0 0 600.000000 600.000000"
 preserveAspectRatio="xMidYMid meet">
<g transform="translate(0.000000,600.000000) scale(0.100000,-0.100000)"
fill="#000000" stroke="none">
<path d="M2582 4555 c-33 -27 -73 -111 -99 -206 -25 -89 -25 -299 0 -389 28
-102 69 -179 136 -255 34 -38 76 -96 94 -130 27 -51 37 -60 62 -63 17 -2 39 4
50 12 18 13 20 24 17 133 -3 109 -2 121 19 146 15 20 29 27 47 25 46 -5 59
-41 87 -233 23 -161 35 -208 49 -194 2 2 1 126 -2 274 -8 309 -6 300 -110 429
-97 121 -139 206 -188 380 -9 32 -25 67 -35 77 -28 28 -90 25 -127 -6z m88 -7
c0 -4 6 -8 14 -8 8 0 18 -5 22 -12 5 -7 3 -8 -5 -3 -9 5 -8 0 2 -16 8 -13 18
-42 22 -64 5 -22 9 -45 10 -51 2 -5 14 -36 29 -67 14 -32 26 -61 26 -66 0 -5
7 -14 15 -21 8 -7 12 -16 9 -21 -3 -5 -1 -9 4 -9 5 0 15 -12 23 -27 8 -16 22
-36 33 -45 10 -10 15 -18 10 -18 -5 -1 1 -9 13 -19 12 -10 20 -21 17 -24 -3
-3 4 -11 16 -17 12 -6 19 -14 16 -17 -3 -3 5 -14 17 -25 12 -11 16 -16 8 -12
-7 4 -4 -6 8 -22 25 -35 33 -65 31 -119 -1 -22 -2 -57 -2 -77 -1 -21 -5 -35
-9 -32 -5 2 -6 10 -3 17 5 13 -62 87 -77 87 -22 0 -91 -34 -99 -49 -5 -10 -8
-70 -8 -134 1 -64 -2 -120 -6 -124 -11 -11 -46 -14 -46 -4 0 5 -7 17 -16 25
-8 9 -11 16 -5 16 10 0 -5 22 -37 56 -7 8 -11 14 -8 14 3 0 -17 24 -44 53 -27
28 -50 55 -50 59 0 4 -16 28 -35 54 -19 25 -35 51 -35 57 0 7 5 6 11 -3 12
-17 10 -10 -13 40 -24 54 -32 84 -19 76 5 -4 4 6 -4 21 -29 55 -15 282 22 373
3 8 5 18 5 23 -1 4 10 26 24 48 14 23 20 38 12 33 -7 -4 0 6 17 24 32 34 41
40 29 20 -4 -7 1 -6 10 3 18 17 46 21 46 7z"/>
<path d="M2920 4226 c7 -7 13 -7 20 0 6 6 3 10 -10 10 -13 0 -16 -4 -10 -10z"/>
<path d="M2660 3541 c0 -6 4 -13 10 -16 6 -3 7 1 4 9 -7 18 -14 21 -14 7z"/>
<path d="M2996 3372 c-3 -5 1 -9 9 -9 8 0 12 4 9 9 -3 4 -7 8 -9 8 -2 0 -6 -4
-9 -8z"/>
<path d="M2795 2984 c-213 -17 -587 -79 -755 -125 -192 -54 -294 -156 -307
-306 -9 -120 49 -169 202 -167 78 1 108 7 230 47 182 59 271 75 487 88 221 14
843 6 913 -11 77 -18 184 -74 242 -125 102 -89 183 -246 213 -409 10 -52 11
-108 4 -220 -5 -83 -9 -216 -9 -296 0 -135 2 -148 25 -195 31 -62 78 -95 135
-95 47 0 90 33 103 79 4 14 7 247 6 516 -1 481 -14 744 -44 905 -28 148 -106
213 -310 259 -188 42 -325 53 -715 56 -203 1 -392 1 -420 -1z m675 -34 c69 -5
159 -12 200 -16 41 -4 90 -6 108 -6 17 0 32 -2 32 -6 0 -4 18 -8 40 -9 22 -2
50 -8 61 -14 16 -8 20 -8 14 1 -4 7 5 5 24 -4 17 -9 34 -15 38 -14 4 2 28 -6
53 -16 25 -11 49 -19 53 -17 5 1 5 -4 1 -10 -5 -9 -2 -10 9 -6 11 4 26 -7 49
-34 18 -22 33 -45 33 -52 0 -7 5 -21 12 -33 13 -23 18 -59 32 -239 6 -71 13
-148 16 -170 3 -22 8 -247 11 -500 3 -253 6 -464 6 -470 0 -5 -2 -27 -5 -48
-6 -41 -19 -62 -50 -79 -25 -13 -68 -18 -61 -7 3 5 -3 9 -14 9 -64 0 -106 150
-90 328 5 59 11 173 14 255 4 132 2 156 -20 240 -27 105 -51 168 -69 179 -9 6
-8 8 2 8 10 0 8 5 -6 18 -11 9 -23 27 -27 40 -4 12 -11 22 -15 22 -9 0 -35 51
-32 63 1 5 -2 6 -7 3 -4 -2 -30 15 -57 40 -28 24 -56 44 -63 44 -8 0 -10 5 -6
12 5 8 2 9 -10 5 -9 -4 -15 -3 -12 1 6 10 -119 64 -155 67 -14 1 -32 6 -40 11
-8 5 -216 9 -464 10 -506 1 -585 -4 -765 -48 -47 -11 -93 -25 -103 -30 -49
-26 -240 -69 -281 -63 -17 2 -50 6 -74 9 -45 6 -61 16 -82 55 -15 30 -6 125
16 158 8 13 11 23 7 23 -3 0 3 10 15 23 12 13 19 27 15 32 -5 4 -3 5 3 2 6 -4
20 5 30 18 10 14 24 25 31 25 6 0 13 4 15 10 3 11 131 60 165 62 13 2 23 6 23
11 0 5 6 7 13 4 6 -2 26 0 42 5 17 5 46 11 65 13 19 2 46 8 60 11 35 11 51 14
86 18 18 2 51 7 75 12 24 4 51 8 59 9 8 1 33 5 55 8 46 8 128 17 200 23 28 2
158 7 290 10 132 4 241 7 242 8 1 1 17 0 35 -1 18 -2 89 -7 158 -13z"/>
<path d="M4110 2821 c0 -5 7 -12 16 -15 14 -5 15 -4 4 9 -14 17 -20 19 -20 6z"/>
<path d="M4203 2852 c15 -16 24 -32 20 -37 -5 -4 -2 -5 5 -1 11 6 7 15 -14 37
-15 16 -30 29 -33 29 -2 0 7 -13 22 -28z"/>
<path d="M2410 2464 c-49 -9 -88 -23 -114 -41 -48 -34 -81 -93 -72 -129 6 -23
11 -25 39 -20 66 12 317 19 317 9 0 -7 -51 -12 -132 -15 -160 -6 -208 -21
-234 -75 -31 -68 0 -218 59 -281 42 -45 96 -65 188 -70 105 -5 148 7 204 59
67 62 98 142 103 270 11 264 -85 343 -358 293z m64 -26 c-5 -7 -3 -8 6 -3 18
11 130 13 123 2 -3 -5 3 -7 13 -6 26 4 65 -11 59 -22 -3 -5 0 -6 8 -3 14 5 37
-33 37 -62 0 -8 3 -13 8 -11 8 5 14 -56 15 -143 1 -59 -19 -157 -36 -177 -5
-7 -6 -13 -1 -13 4 0 -1 -7 -12 -16 -10 -8 -12 -12 -4 -8 10 5 9 1 -4 -14 -10
-12 -23 -19 -27 -16 -5 3 -6 -1 -3 -9 3 -10 -5 -19 -25 -28 -16 -7 -27 -17
-24 -23 4 -5 1 -6 -7 -1 -7 4 -16 2 -20 -5 -10 -16 -177 -17 -193 -1 -6 6 -20
11 -31 11 -19 0 -108 83 -104 98 1 4 -4 27 -11 52 -14 49 -8 139 10 150 6 4
10 11 10 16 -1 5 4 10 9 10 6 1 12 3 15 4 23 12 126 23 201 21 69 -1 83 2 103
20 l23 22 -23 18 c-21 16 -41 18 -151 16 -69 -1 -121 -5 -116 -8 6 -4 -3 -6
-19 -5 -48 4 -55 13 -35 44 29 46 46 62 64 62 10 0 18 4 18 10 0 5 7 7 15 4 8
-4 15 -2 15 3 0 5 13 8 29 5 16 -2 37 1 48 7 23 13 26 13 17 -1z"/>
<path d="M2365 2107 c-20 -23 -23 -33 -14 -49 6 -11 13 -17 16 -14 4 3 12 1
18 -4 16 -13 192 -20 222 -9 28 10 27 51 -2 74 -11 9 -14 13 -6 9 9 -5 12 -3
7 5 -5 7 -16 9 -28 5 -11 -3 -18 -2 -15 2 3 5 -35 9 -84 9 -85 0 -90 -1 -114
-28z m233 -29 c3 -16 -7 -18 -106 -18 -60 0 -112 3 -115 7 -4 3 -2 12 5 20 8
10 36 13 112 11 87 -3 101 -5 104 -20z"/>
<path d="M3474 2466 c-42 -18 -60 -68 -75 -202 -14 -128 -6 -328 16 -402 29
-95 120 -135 176 -76 22 23 24 34 23 112 0 48 -3 125 -8 172 -5 63 -4 91 6
109 33 61 88 54 114 -15 15 -40 16 -55 6 -122 -28 -182 -6 -262 73 -262 71 0
131 85 142 203 21 226 -168 454 -407 491 -20 3 -49 -1 -66 -8z m86 -32 c19 -1
36 -3 38 -4 3 -3 18 -7 33 -9 5 0 7 -6 3 -13 -4 -7 -3 -8 5 -4 6 4 18 2 26 -4
8 -7 15 -9 15 -5 0 5 9 0 20 -10 11 -10 17 -22 14 -26 -3 -5 1 -6 9 -3 8 3 20
-2 27 -10 7 -9 17 -13 23 -9 6 3 7 1 3 -5 -4 -7 -4 -12 1 -12 4 0 19 -10 33
-21 14 -11 18 -17 10 -13 -9 4 -7 -2 5 -14 39 -41 46 -52 39 -64 -5 -7 -3 -8
6 -3 10 6 12 4 7 -9 -4 -9 -3 -15 2 -12 16 11 40 -107 35 -179 -7 -99 -7 -99
-43 -150 -25 -34 -39 -45 -59 -45 -15 0 -32 4 -37 8 -28 19 -36 93 -20 177 13
69 13 103 3 155 -7 30 -11 62 -9 70 2 13 1 13 -8 0 -10 -14 -15 -7 -12 13 1 5
-3 6 -8 3 -5 -4 -12 -2 -16 4 -13 21 -66 10 -95 -18 -33 -33 -47 -112 -34
-184 27 -146 13 -244 -33 -242 -12 0 -20 -3 -17 -8 3 -4 0 -8 -5 -8 -6 0 -11
4 -11 10 0 5 -6 7 -14 4 -21 -8 -48 43 -64 121 -6 31 -5 334 2 385 14 111 17
120 44 134 15 8 31 11 37 8 5 -3 25 -7 45 -8z"/>
<path d="M2776 2457 c-19 -14 -19 -16 -1 -78 21 -75 23 -167 11 -405 -8 -159
-8 -175 12 -240 26 -87 73 -143 144 -175 44 -20 70 -24 148 -24 120 0 177 24
221 93 42 66 51 129 54 401 2 154 9 278 18 331 10 58 11 89 5 98 -17 20 -131
16 -159 -7 -24 -19 -24 -22 -29 -264 -5 -221 -9 -271 -25 -255 -3 2 -9 108
-14 235 -9 234 -16 274 -52 296 -25 15 -64 0 -79 -30 -9 -19 -16 -102 -21
-262 -5 -128 -11 -236 -14 -239 -15 -16 -21 29 -26 231 -6 237 -10 257 -57
281 -44 22 -115 29 -136 13z m580 -76 c-16 -136 -25 -298 -26 -451 -1 -193 -3
-212 -25 -247 -9 -14 -11 -22 -5 -18 7 4 2 -6 -11 -24 -12 -17 -26 -31 -30
-31 -5 0 -18 -10 -30 -22 -12 -13 -19 -18 -15 -11 4 7 -6 6 -25 -4 -31 -16
-86 -18 -169 -8 -48 6 -150 61 -150 81 0 6 -6 17 -14 23 -8 7 -22 41 -32 77
-15 56 -16 86 -9 237 5 95 8 201 7 237 -2 77 -21 188 -33 196 -19 12 3 22 38
18 67 -8 82 -14 94 -37 8 -13 15 -103 20 -235 5 -116 13 -221 19 -232 6 -11
19 -20 29 -20 18 0 45 45 36 60 -3 5 -2 11 3 14 5 3 10 94 11 202 1 109 6 205
11 213 4 9 7 20 7 25 -4 18 42 16 52 -3 9 -16 22 -238 25 -408 1 -29 5 -53 9
-53 5 0 6 -4 2 -9 -6 -11 21 -41 39 -41 6 0 19 12 28 28 13 22 16 65 17 245 1
120 5 225 8 233 3 8 12 13 19 10 8 -3 13 -2 13 2 -3 15 3 17 47 13 l47 -3 -7
-57z"/>
<path d="M2115 2376 c-41 -19 -54 -31 -70 -67 -18 -39 -20 -63 -17 -225 2
-170 1 -183 -19 -208 -20 -25 -53 -33 -75 -18 -32 21 -39 58 -36 195 3 156 -9
250 -35 280 -27 29 -104 60 -117 47 -7 -7 -14 -87 -17 -203 -4 -106 -10 -246
-14 -313 -7 -102 -5 -129 10 -174 38 -114 124 -167 260 -158 106 7 154 37 197
125 31 64 33 73 32 173 0 76 -6 127 -22 184 -26 96 -29 203 -6 293 16 66 14
93 -8 92 -7 0 -36 -10 -63 -23z m37 -28 c-8 -8 -8 -15 -2 -24 7 -8 7 -21 0
-38 -15 -39 -12 -175 4 -229 7 -25 11 -48 8 -51 -2 -3 0 -12 7 -19 18 -23 26
-204 10 -224 -10 -12 -10 -15 -1 -9 9 5 10 2 3 -16 -4 -13 -14 -41 -21 -63
-16 -49 -57 -95 -78 -87 -9 3 -13 1 -10 -4 7 -11 -44 -18 -123 -18 -58 0 -153
29 -143 45 3 5 -2 9 -10 9 -8 0 -18 5 -22 12 -4 7 -3 8 4 4 7 -4 12 -2 12 3 0
6 -4 11 -9 11 -9 0 -28 40 -37 80 -8 35 -6 141 4 230 5 41 10 142 10 224 1 82
6 154 11 159 5 5 20 4 38 -5 48 -22 61 -84 58 -267 -2 -124 0 -162 12 -186 20
-37 38 -55 57 -55 8 0 18 -4 21 -10 4 -6 16 -5 33 4 28 15 71 56 57 56 -4 0
-3 6 3 13 13 15 14 48 9 220 -5 145 5 192 47 214 14 7 26 18 26 23 0 6 8 10
17 10 13 0 14 -3 5 -12z m-32 -2 c0 -2 -7 -7 -16 -10 -8 -3 -12 -2 -9 4 6 10
25 14 25 6z"/>
<path d="M4010 1226 c0 -2 8 -10 18 -17 15 -13 16 -12 3 4 -13 16 -21 21 -21
13z"/>
<path d="M4280 1140 c-9 -6 -10 -10 -3 -10 6 0 15 5 18 10 8 12 4 12 -15 0z"/>
</g>
</svg>
