<svg xmlns="http://www.w3.org/2000/svg" width="1536" height="1024" viewBox="0 0 1536 1024" role="img" aria-label="Hand-drawn books and steaming coffee mug illustration">
  <title>Hand-drawn books and steaming coffee mug</title>
  <desc>Vectorized minimalist doodle illustration with black sketch lines and soft beige shading.</desc>
  <rect width="100%" height="100%" fill="#ffffff"/>
  <g id="soft-beige-shading" fill="#e8dcc8" fill-opacity="0.72" fill-rule="evenodd">
    <path d="M 637.0 768.0 L 640.0 776.0 L 643.0 779.0 L 654.0 780.0 L 671.0 775.0 L 673.0 773.0 L 678.0 772.0 L 681.0 770.0 L 689.0 769.0 L 695.0 766.0 L 698.0 766.0 L 708.0 761.0 L 722.0 757.0 L 729.0 753.0 L 706.0 759.0 L 700.0 762.0 L 685.0 766.0 L 664.0 774.0 L 661.0 774.0 L 659.0 771.0 L 660.0 769.0 L 658.0 767.0 L 655.0 766.0 L 653.0 768.0 L 645.0 767.0 L 643.0 765.0 L 641.0 756.0 L 642.0 752.0 L 646.0 746.0 L 640.0 746.0 L 638.0 748.0 L 637.0 752.0 Z M 700.0 721.0 L 698.0 722.0 L 696.0 721.0 L 688.0 722.0 L 677.0 726.0 L 668.0 731.0 L 658.0 733.0 L 654.0 737.0 L 649.0 737.0 L 653.0 738.0 L 661.0 736.0 L 668.0 732.0 L 671.0 732.0 L 673.0 728.0 L 682.0 728.0 L 688.0 726.0 L 690.0 724.0 L 698.0 723.0 Z M 848.0 707.0 L 842.0 709.0 L 840.0 711.0 L 836.0 711.0 L 826.0 716.0 L 802.0 724.0 L 792.0 729.0 L 772.0 735.0 L 737.0 750.0 L 744.0 749.0 L 749.0 746.0 L 760.0 743.0 L 785.0 732.0 L 794.0 730.0 L 805.0 725.0 L 824.0 719.0 L 826.0 717.0 L 837.0 713.0 L 841.0 710.0 L 847.0 709.0 Z M 361.0 679.0 L 360.0 715.0 L 362.0 720.0 L 371.0 725.0 L 414.0 735.0 L 416.0 737.0 L 444.0 745.0 L 469.0 749.0 L 492.0 757.0 L 544.0 770.0 L 550.0 770.0 L 603.0 782.0 L 607.0 781.0 L 604.0 772.0 L 603.0 743.0 L 600.0 741.0 L 585.0 737.0 L 578.0 733.0 L 551.0 728.0 L 524.0 719.0 L 446.0 700.0 L 442.0 697.0 L 363.0 678.0 Z M 435.0 707.0 L 438.0 706.0 L 442.0 710.0 L 439.0 711.0 Z M 402.0 665.0 L 410.0 667.0 L 416.0 666.0 L 417.0 669.0 L 421.0 669.0 L 423.0 672.0 L 424.0 671.0 L 428.0 672.0 L 437.0 672.0 L 438.0 671.0 L 434.0 670.0 L 432.0 672.0 L 431.0 671.0 L 432.0 669.0 L 428.0 669.0 L 426.0 671.0 L 423.0 667.0 L 417.0 666.0 L 416.0 664.0 L 415.0 665.0 L 410.0 665.0 L 409.0 664.0 L 403.0 664.0 Z M 637.0 680.0 L 640.0 685.0 L 643.0 686.0 L 649.0 685.0 L 655.0 682.0 L 671.0 678.0 L 684.0 672.0 L 692.0 671.0 L 720.0 659.0 L 711.0 661.0 L 705.0 664.0 L 702.0 664.0 L 696.0 667.0 L 693.0 667.0 L 684.0 671.0 L 668.0 675.0 L 661.0 678.0 L 647.0 680.0 L 642.0 672.0 L 642.0 665.0 L 643.0 664.0 L 642.0 658.0 L 645.0 643.0 L 643.0 642.0 L 643.0 644.0 L 640.0 647.0 L 638.0 652.0 L 637.0 672.0 L 636.0 673.0 L 637.0 674.0 Z M 1042.0 631.0 L 1041.0 640.0 L 1039.0 642.0 L 1038.0 650.0 L 1034.0 661.0 L 1035.0 662.0 L 1038.0 659.0 L 1040.0 651.0 L 1041.0 641.0 L 1042.0 640.0 Z M 808.0 629.0 L 795.0 631.0 L 790.0 634.0 L 785.0 635.0 L 788.0 636.0 L 793.0 633.0 Z M 838.0 619.0 L 829.0 622.0 L 821.0 623.0 L 811.0 627.0 L 817.0 627.0 L 824.0 624.0 L 829.0 624.0 L 834.0 622.0 L 835.0 620.0 L 838.0 620.0 Z M 1135.0 589.0 L 1131.0 590.0 L 1124.0 602.0 L 1117.0 609.0 L 1105.0 616.0 L 1098.0 617.0 L 1096.0 619.0 L 1089.0 619.0 L 1089.0 620.0 L 1107.0 617.0 L 1122.0 610.0 L 1130.0 602.0 Z M 362.0 616.0 L 366.0 633.0 L 370.0 637.0 L 384.0 638.0 L 388.0 641.0 L 387.0 644.0 L 392.0 643.0 L 412.0 651.0 L 414.0 649.0 L 414.0 652.0 L 431.0 655.0 L 438.0 652.0 L 448.0 655.0 L 463.0 655.0 L 583.0 682.0 L 607.0 685.0 L 605.0 680.0 L 606.0 653.0 L 603.0 647.0 L 599.0 646.0 L 598.0 652.0 L 596.0 650.0 L 585.0 651.0 L 576.0 643.0 L 569.0 641.0 L 566.0 635.0 L 562.0 636.0 L 560.0 642.0 L 552.0 637.0 L 541.0 637.0 L 538.0 633.0 L 535.0 633.0 L 537.0 634.0 L 536.0 637.0 L 533.0 635.0 L 529.0 637.0 L 528.0 631.0 L 524.0 632.0 L 527.0 632.0 L 527.0 635.0 L 520.0 632.0 L 518.0 624.0 L 513.0 624.0 L 511.0 634.0 L 507.0 630.0 L 503.0 633.0 L 498.0 629.0 L 498.0 625.0 L 503.0 624.0 L 506.0 619.0 L 521.0 622.0 L 520.0 620.0 L 523.0 619.0 L 526.0 621.0 L 523.0 624.0 L 530.0 621.0 L 519.0 617.0 L 502.0 617.0 L 500.0 619.0 L 499.0 616.0 L 473.0 609.0 L 458.0 602.0 L 374.0 583.0 L 366.0 583.0 Z M 384.0 630.0 L 389.0 629.0 L 392.0 630.0 L 393.0 633.0 L 389.0 634.0 L 386.0 633.0 Z M 480.0 616.0 L 486.0 616.0 L 489.0 619.0 L 489.0 624.0 L 486.0 625.0 L 489.0 626.0 L 488.0 631.0 L 483.0 630.0 L 481.0 628.0 L 483.0 625.0 L 479.0 622.0 L 479.0 617.0 Z M 440.0 610.0 L 441.0 609.0 L 448.0 610.0 L 451.0 613.0 L 441.0 615.0 Z M 428.0 610.0 L 432.0 609.0 L 435.0 612.0 L 430.0 613.0 Z M 452.0 615.0 L 454.0 613.0 L 456.0 613.0 L 455.0 606.0 L 457.0 604.0 L 459.0 604.0 L 461.0 607.0 L 464.0 606.0 L 465.0 608.0 L 463.0 609.0 L 465.0 611.0 L 468.0 612.0 L 472.0 611.0 L 473.0 612.0 L 473.0 617.0 L 471.0 618.0 L 465.0 616.0 L 465.0 621.0 L 464.0 622.0 L 458.0 620.0 L 456.0 618.0 L 456.0 616.0 L 453.0 617.0 Z M 424.0 607.0 L 424.0 605.0 L 429.0 602.0 L 437.0 604.0 L 434.0 610.0 Z M 408.0 601.0 L 409.0 600.0 L 415.0 600.0 L 418.0 605.0 L 413.0 606.0 Z M 1050.0 489.0 L 1043.0 490.0 L 1033.0 494.0 L 1024.0 495.0 L 1020.0 497.0 L 1015.0 497.0 L 1014.0 499.0 L 1032.0 499.0 L 1042.0 496.0 L 1046.0 496.0 L 1050.0 493.0 Z M 851.0 491.0 L 851.0 533.0 L 854.0 539.0 L 866.0 541.0 L 871.0 546.0 L 871.0 552.0 L 862.0 561.0 L 856.0 574.0 L 856.0 607.0 L 862.0 614.0 L 874.0 617.0 L 876.0 622.0 L 872.0 630.0 L 882.0 638.0 L 872.0 646.0 L 866.0 667.0 L 884.0 677.0 L 897.0 675.0 L 915.0 681.0 L 933.0 680.0 L 914.0 673.0 L 910.0 666.0 L 912.0 658.0 L 902.0 655.0 L 897.0 649.0 L 910.0 644.0 L 897.0 635.0 L 910.0 626.0 L 888.0 621.0 L 905.0 609.0 L 900.0 603.0 L 894.0 604.0 L 890.0 600.0 L 910.0 595.0 L 912.0 591.0 L 884.0 591.0 L 884.0 587.0 L 889.0 584.0 L 904.0 583.0 L 896.0 578.0 L 876.0 578.0 L 881.0 572.0 L 892.0 568.0 L 906.0 569.0 L 905.0 561.0 L 888.0 558.0 L 899.0 554.0 L 899.0 548.0 L 888.0 545.0 L 887.0 541.0 L 908.0 536.0 L 911.0 532.0 L 888.0 528.0 L 890.0 523.0 L 905.0 517.0 L 903.0 514.0 L 889.0 514.0 L 888.0 510.0 L 900.0 503.0 L 980.0 503.0 L 991.0 500.0 L 918.0 499.0 L 857.0 489.0 Z M 880.0 512.0 L 881.0 513.0 L 880.0 516.0 L 877.0 517.0 L 876.0 514.0 Z"/>
  </g>
  <g id="soft-shadow" fill="#9c9588" fill-opacity="0.35" fill-rule="evenodd">
    <path d="M 499.0 798.0 L 499.0 799.0 L 517.0 800.0 L 518.0 801.0 L 542.0 801.0 L 540.0 799.0 L 530.0 799.0 L 529.0 800.0 L 528.0 798.0 Z M 416.0 784.0 L 416.0 785.0 L 420.0 786.0 L 428.0 786.0 L 429.0 784.0 L 432.0 784.0 L 433.0 786.0 L 436.0 786.0 L 436.0 782.0 L 422.0 782.0 Z M 368.0 768.0 L 368.0 770.0 L 376.0 770.0 L 377.0 771.0 L 391.0 771.0 L 392.0 769.0 L 393.0 771.0 L 399.0 771.0 L 399.0 769.0 L 397.0 767.0 L 395.0 769.0 L 393.0 767.0 Z M 772.0 765.0 L 772.0 766.0 L 795.0 766.0 L 795.0 765.0 L 791.0 764.0 Z M 315.0 756.0 L 316.0 758.0 L 330.0 758.0 L 330.0 756.0 L 328.0 754.0 L 322.0 754.0 L 321.0 756.0 L 320.0 755.0 Z M 789.0 756.0 L 793.0 756.0 L 794.0 754.0 L 796.0 756.0 L 819.0 756.0 L 820.0 754.0 L 822.0 756.0 L 840.0 756.0 L 847.0 754.0 L 847.0 753.0 L 844.0 752.0 L 806.0 752.0 L 805.0 754.0 L 793.0 753.0 Z M 276.0 745.0 L 277.0 746.0 L 288.0 745.0 L 294.0 743.0 L 295.0 741.0 L 283.0 741.0 L 277.0 743.0 Z M 832.0 738.0 L 834.0 740.0 L 833.0 742.0 L 836.0 742.0 L 837.0 740.0 L 840.0 742.0 L 848.0 740.0 L 849.0 741.0 L 886.0 741.0 L 894.0 739.0 L 894.0 738.0 L 885.0 738.0 L 884.0 737.0 L 870.0 737.0 L 869.0 739.0 L 868.0 737.0 L 841.0 737.0 L 840.0 739.0 L 838.0 737.0 Z M 878.0 727.0 L 880.0 728.0 L 882.0 727.0 L 883.0 728.0 L 904.0 728.0 L 905.0 726.0 L 909.0 726.0 L 911.0 728.0 L 913.0 728.0 L 917.0 724.0 L 905.0 724.0 L 904.0 726.0 L 903.0 724.0 L 881.0 724.0 L 880.0 726.0 L 878.0 724.0 Z M 951.0 712.0 L 953.0 714.0 L 960.0 714.0 L 961.0 715.0 L 972.0 715.0 L 977.0 713.0 L 977.0 712.0 L 974.0 711.0 L 957.0 711.0 L 956.0 713.0 Z M 1041.0 695.0 L 1045.0 695.0 L 1049.0 691.0 L 1051.0 692.0 L 1050.0 695.0 L 1054.0 694.0 L 1075.0 694.0 L 1083.0 692.0 L 1083.0 691.0 L 1058.0 690.0 L 1057.0 692.0 L 1056.0 690.0 L 1054.0 690.0 L 1053.0 692.0 L 1052.0 690.0 L 1049.0 690.0 L 1048.0 692.0 L 1042.0 692.0 Z M 1081.0 675.0 L 1081.0 678.0 L 1083.0 680.0 L 1088.0 680.0 L 1089.0 678.0 L 1091.0 678.0 L 1091.0 676.0 Z"/>
  </g>
  <g id="ink-outline" fill="#302e2a" fill-rule="evenodd">
    <path d="M 437.0 785.0 L 440.0 785.0 L 442.0 783.0 L 438.0 782.0 Z M 706.0 574.0 L 701.0 575.0 L 695.0 573.0 L 689.0 574.0 L 645.0 588.0 L 642.0 590.0 L 642.0 592.0 L 652.0 593.0 L 658.0 590.0 Z M 580.0 524.0 L 579.0 522.0 L 574.0 519.0 L 564.0 518.0 L 506.0 541.0 L 485.0 548.0 L 480.0 551.0 L 486.0 554.0 L 494.0 555.0 L 501.0 550.0 L 532.0 539.0 L 548.0 532.0 L 556.0 530.0 L 559.0 528.0 L 562.0 528.0 L 566.0 526.0 L 579.0 527.0 Z M 1276.0 660.0 L 1063.0 659.0 L 1065.0 637.0 L 1121.0 629.0 L 1151.0 601.0 L 1161.0 551.0 L 1149.0 519.0 L 1116.0 497.0 L 1074.0 496.0 L 1073.0 464.0 L 1057.0 451.0 L 987.0 440.0 L 911.0 441.0 L 856.0 449.0 L 831.0 462.0 L 829.0 533.0 L 559.0 487.0 L 357.0 562.0 L 348.0 574.0 L 343.0 613.0 L 348.0 635.0 L 360.0 651.0 L 347.0 659.0 L 339.0 682.0 L 341.0 724.0 L 356.0 741.0 L 312.0 741.0 L 364.0 743.0 L 401.0 754.0 L 336.0 757.0 L 412.0 756.0 L 451.0 767.0 L 398.0 768.0 L 461.0 769.0 L 512.0 782.0 L 446.0 785.0 L 526.0 786.0 L 602.0 801.0 L 653.0 801.0 L 858.0 727.0 L 876.0 727.0 L 867.0 724.0 L 890.0 711.0 L 936.0 710.0 L 890.0 709.0 L 867.0 694.0 L 864.0 681.0 L 916.0 698.0 L 981.0 699.0 L 1049.0 694.0 L 1027.0 691.0 L 1049.0 680.0 L 1082.0 679.0 L 1061.0 674.0 L 1062.0 664.0 Z M 451.0 767.0 L 453.0 766.0 L 454.0 768.0 L 452.0 769.0 Z M 401.0 754.0 L 403.0 753.0 L 406.0 754.0 L 407.0 756.0 L 403.0 757.0 Z M 328.0 741.0 L 330.0 740.0 L 331.0 742.0 L 329.0 743.0 Z M 351.0 672.0 L 356.0 665.0 L 359.0 665.0 L 371.0 669.0 L 396.0 674.0 L 400.0 676.0 L 420.0 680.0 L 459.0 691.0 L 618.0 730.0 L 619.0 732.0 L 616.0 737.0 L 613.0 748.0 L 613.0 769.0 L 617.0 783.0 L 623.0 793.0 L 620.0 794.0 L 599.0 791.0 L 545.0 780.0 L 516.0 772.0 L 504.0 770.0 L 500.0 768.0 L 496.0 768.0 L 485.0 764.0 L 462.0 759.0 L 451.0 755.0 L 432.0 751.0 L 428.0 749.0 L 409.0 745.0 L 359.0 731.0 L 352.0 725.0 L 350.0 720.0 L 349.0 685.0 Z M 858.0 652.0 L 854.0 662.0 L 854.0 667.0 L 853.0 668.0 L 854.0 686.0 L 859.0 699.0 L 870.0 710.0 L 869.0 713.0 L 833.0 727.0 L 825.0 729.0 L 791.0 743.0 L 783.0 745.0 L 764.0 753.0 L 753.0 756.0 L 734.0 764.0 L 723.0 767.0 L 720.0 769.0 L 712.0 771.0 L 709.0 773.0 L 664.0 789.0 L 648.0 793.0 L 642.0 793.0 L 635.0 790.0 L 629.0 783.0 L 624.0 768.0 L 624.0 748.0 L 629.0 735.0 L 635.0 730.0 L 685.0 712.0 L 688.0 710.0 L 749.0 689.0 L 752.0 687.0 L 766.0 683.0 L 777.0 678.0 L 797.0 672.0 L 800.0 670.0 L 817.0 665.0 L 820.0 663.0 L 843.0 656.0 L 855.0 651.0 Z M 864.0 638.0 L 863.0 640.0 L 629.0 723.0 L 592.0 716.0 L 368.0 659.0 L 374.0 655.0 L 388.0 657.0 L 606.0 706.0 L 632.0 709.0 L 664.0 702.0 L 854.0 634.0 L 861.0 635.0 Z M 358.0 578.0 L 362.0 572.0 L 372.0 573.0 L 453.0 591.0 L 462.0 594.0 L 484.0 598.0 L 493.0 601.0 L 515.0 605.0 L 524.0 608.0 L 533.0 609.0 L 542.0 612.0 L 551.0 613.0 L 560.0 616.0 L 622.0 629.0 L 623.0 632.0 L 619.0 638.0 L 615.0 653.0 L 615.0 676.0 L 619.0 691.0 L 624.0 700.0 L 622.0 701.0 L 617.0 699.0 L 607.0 698.0 L 526.0 679.0 L 495.0 673.0 L 486.0 670.0 L 473.0 668.0 L 464.0 665.0 L 395.0 651.0 L 382.0 647.0 L 365.0 645.0 L 358.0 635.0 L 354.0 620.0 L 354.0 596.0 Z M 850.0 560.0 L 844.0 574.0 L 843.0 584.0 L 842.0 585.0 L 842.0 599.0 L 846.0 612.0 L 850.0 617.0 L 859.0 623.0 L 858.0 625.0 L 838.0 631.0 L 835.0 633.0 L 770.0 655.0 L 767.0 657.0 L 753.0 661.0 L 750.0 663.0 L 736.0 667.0 L 716.0 675.0 L 699.0 680.0 L 696.0 682.0 L 641.0 700.0 L 637.0 699.0 L 633.0 695.0 L 627.0 681.0 L 626.0 657.0 L 629.0 643.0 L 637.0 633.0 L 657.0 624.0 L 716.0 604.0 L 719.0 602.0 L 748.0 593.0 L 751.0 591.0 L 847.0 559.0 Z M 1107.0 538.0 L 1113.0 545.0 L 1116.0 555.0 L 1116.0 571.0 L 1114.0 579.0 L 1111.0 585.0 L 1104.0 592.0 L 1094.0 597.0 L 1085.0 599.0 L 1068.0 599.0 L 1067.0 595.0 L 1068.0 594.0 L 1071.0 536.0 L 1081.0 534.0 L 1096.0 534.0 Z M 1120.0 507.0 L 1131.0 513.0 L 1140.0 522.0 L 1148.0 537.0 L 1151.0 549.0 L 1151.0 571.0 L 1147.0 587.0 L 1141.0 599.0 L 1135.0 607.0 L 1128.0 614.0 L 1112.0 623.0 L 1099.0 627.0 L 1087.0 628.0 L 1086.0 629.0 L 1067.0 629.0 L 1065.0 626.0 L 1066.0 625.0 L 1066.0 614.0 L 1068.0 608.0 L 1070.0 607.0 L 1093.0 606.0 L 1107.0 601.0 L 1113.0 597.0 L 1120.0 589.0 L 1123.0 583.0 L 1126.0 571.0 L 1125.0 549.0 L 1119.0 536.0 L 1111.0 529.0 L 1098.0 525.0 L 1073.0 526.0 L 1072.0 525.0 L 1072.0 506.0 L 1074.0 504.0 L 1081.0 504.0 L 1082.0 503.0 L 1105.0 503.0 Z M 373.0 565.0 L 379.0 561.0 L 501.0 514.0 L 562.0 495.0 L 587.0 497.0 L 626.0 505.0 L 768.0 528.0 L 830.0 541.0 L 851.0 548.0 L 850.0 550.0 L 685.0 605.0 L 634.0 624.0 L 398.0 572.0 Z M 944.0 478.0 L 946.0 477.0 L 947.0 479.0 L 945.0 480.0 Z M 924.0 478.0 L 925.0 477.0 L 942.0 477.0 L 943.0 479.0 L 942.0 480.0 L 925.0 480.0 Z M 883.0 475.0 L 884.0 473.0 L 887.0 472.0 L 900.0 472.0 L 901.0 473.0 L 900.0 475.0 L 888.0 475.0 L 887.0 476.0 Z M 1063.0 471.0 L 1064.0 503.0 L 1055.0 642.0 L 1050.0 667.0 L 1040.0 675.0 L 1020.0 683.0 L 993.0 689.0 L 969.0 691.0 L 938.0 691.0 L 911.0 688.0 L 891.0 683.0 L 871.0 673.0 L 865.0 667.0 L 866.0 658.0 L 871.0 646.0 L 878.0 642.0 L 880.0 638.0 L 869.0 630.0 L 873.0 624.0 L 873.0 619.0 L 862.0 615.0 L 856.0 609.0 L 853.0 602.0 L 854.0 577.0 L 859.0 564.0 L 869.0 551.0 L 869.0 547.0 L 866.0 543.0 L 842.0 537.0 L 840.0 535.0 L 838.0 473.0 L 840.0 472.0 L 856.0 479.0 L 886.0 485.0 L 921.0 488.0 L 970.0 488.0 L 1026.0 482.0 L 1051.0 476.0 Z M 903.0 472.0 L 904.0 471.0 L 912.0 471.0 L 913.0 473.0 L 912.0 474.0 L 904.0 474.0 Z M 918.0 471.0 L 923.0 470.0 L 924.0 472.0 L 919.0 473.0 Z M 846.0 465.0 L 849.0 461.0 L 855.0 458.0 L 869.0 454.0 L 892.0 451.0 L 893.0 450.0 L 901.0 450.0 L 902.0 449.0 L 933.0 448.0 L 934.0 447.0 L 979.0 447.0 L 980.0 448.0 L 1007.0 449.0 L 1008.0 450.0 L 1015.0 450.0 L 1016.0 451.0 L 1022.0 451.0 L 1038.0 454.0 L 1048.0 457.0 L 1056.0 462.0 L 1055.0 465.0 L 1042.0 470.0 L 1040.0 468.0 L 1027.0 464.0 L 1010.0 462.0 L 1009.0 461.0 L 1002.0 461.0 L 1001.0 460.0 L 961.0 459.0 L 960.0 458.0 L 959.0 459.0 L 955.0 458.0 L 953.0 459.0 L 924.0 459.0 L 923.0 460.0 L 910.0 460.0 L 909.0 461.0 L 901.0 461.0 L 900.0 462.0 L 882.0 464.0 L 869.0 468.0 L 867.0 473.0 L 852.0 469.0 Z M 907.0 317.0 L 904.0 318.0 L 899.0 323.0 L 896.0 331.0 L 896.0 337.0 L 899.0 344.0 L 908.0 354.0 L 910.0 359.0 L 910.0 365.0 L 904.0 375.0 L 904.0 378.0 L 906.0 380.0 L 909.0 380.0 L 913.0 378.0 L 917.0 373.0 L 920.0 366.0 L 920.0 358.0 L 917.0 352.0 L 906.0 339.0 L 906.0 330.0 L 912.0 320.0 L 911.0 318.0 Z M 1010.0 312.0 L 1007.0 312.0 L 1000.0 317.0 L 995.0 327.0 L 996.0 337.0 L 1005.0 349.0 L 1007.0 354.0 L 1007.0 362.0 L 1000.0 372.0 L 1001.0 376.0 L 1005.0 376.0 L 1009.0 374.0 L 1014.0 369.0 L 1017.0 361.0 L 1016.0 351.0 L 1005.0 335.0 L 1006.0 324.0 L 1012.0 316.0 L 1012.0 314.0 Z M 957.0 282.0 L 953.0 283.0 L 950.0 291.0 L 943.0 300.0 L 941.0 306.0 L 942.0 318.0 L 951.0 328.0 L 956.0 338.0 L 956.0 344.0 L 950.0 354.0 L 950.0 357.0 L 952.0 359.0 L 956.0 359.0 L 961.0 355.0 L 965.0 348.0 L 965.0 343.0 L 966.0 342.0 L 965.0 336.0 L 962.0 329.0 L 953.0 319.0 L 951.0 315.0 L 952.0 304.0 L 961.0 290.0 L 961.0 286.0 Z"/>
  </g>
</svg>